<mxfile host="app.diagrams.net" agent="Mozilla/5.0 (Windows NT 10.0; Win64; x64) AppleWebKit/537.36 (KHTML, like Gecko) Chrome/141.0.0.0 Safari/537.36" version="28.2.8">
  <diagram name="Halaman-1" id="yofHgY4po8rV88ZmcIhX">
    <mxGraphModel dx="1158" dy="731" grid="1" gridSize="10" guides="1" tooltips="1" connect="1" arrows="1" fold="1" page="1" pageScale="1" pageWidth="827" pageHeight="1169" math="0" shadow="0">
      <root>
        <mxCell id="0" />
        <mxCell id="1" parent="0" />
        <mxCell id="gOMFBhx92F8j9sme_uIz-1" style="edgeStyle=orthogonalEdgeStyle;rounded=0;orthogonalLoop=1;jettySize=auto;html=1;exitX=1;exitY=0.5;exitDx=0;exitDy=0;entryX=0.75;entryY=0;entryDx=0;entryDy=0;" parent="1" source="gOMFBhx92F8j9sme_uIz-2" target="gOMFBhx92F8j9sme_uIz-15" edge="1">
          <mxGeometry relative="1" as="geometry" />
        </mxCell>
        <mxCell id="gOMFBhx92F8j9sme_uIz-2" value="Tiket ID&lt;br&gt;PRIMARY KEY" style="ellipse;whiteSpace=wrap;html=1;" parent="1" vertex="1">
          <mxGeometry x="350" y="220" width="100" height="50" as="geometry" />
        </mxCell>
        <mxCell id="gOMFBhx92F8j9sme_uIz-3" style="edgeStyle=orthogonalEdgeStyle;rounded=0;orthogonalLoop=1;jettySize=auto;html=1;exitX=1;exitY=0.5;exitDx=0;exitDy=0;entryX=0.25;entryY=0;entryDx=0;entryDy=0;" parent="1" source="gOMFBhx92F8j9sme_uIz-4" target="gOMFBhx92F8j9sme_uIz-15" edge="1">
          <mxGeometry relative="1" as="geometry" />
        </mxCell>
        <mxCell id="gOMFBhx92F8j9sme_uIz-4" value="Email" style="ellipse;whiteSpace=wrap;html=1;" parent="1" vertex="1">
          <mxGeometry x="350" y="400" width="100" height="50" as="geometry" />
        </mxCell>
        <mxCell id="gOMFBhx92F8j9sme_uIz-5" style="edgeStyle=orthogonalEdgeStyle;rounded=0;orthogonalLoop=1;jettySize=auto;html=1;exitX=1;exitY=0.5;exitDx=0;exitDy=0;entryX=0;entryY=0.5;entryDx=0;entryDy=0;" parent="1" source="gOMFBhx92F8j9sme_uIz-6" target="gOMFBhx92F8j9sme_uIz-15" edge="1">
          <mxGeometry relative="1" as="geometry" />
        </mxCell>
        <mxCell id="gOMFBhx92F8j9sme_uIz-6" value="Kategori" style="ellipse;whiteSpace=wrap;html=1;" parent="1" vertex="1">
          <mxGeometry x="350" y="480" width="100" height="50" as="geometry" />
        </mxCell>
        <mxCell id="gOMFBhx92F8j9sme_uIz-7" style="edgeStyle=orthogonalEdgeStyle;rounded=0;orthogonalLoop=1;jettySize=auto;html=1;exitX=1;exitY=0.5;exitDx=0;exitDy=0;entryX=0.5;entryY=0;entryDx=0;entryDy=0;" parent="1" source="gOMFBhx92F8j9sme_uIz-8" target="gOMFBhx92F8j9sme_uIz-15" edge="1">
          <mxGeometry relative="1" as="geometry" />
        </mxCell>
        <mxCell id="gOMFBhx92F8j9sme_uIz-8" value="Nama" style="ellipse;whiteSpace=wrap;html=1;" parent="1" vertex="1">
          <mxGeometry x="350" y="300" width="100" height="50" as="geometry" />
        </mxCell>
        <mxCell id="gOMFBhx92F8j9sme_uIz-9" style="edgeStyle=orthogonalEdgeStyle;rounded=0;orthogonalLoop=1;jettySize=auto;html=1;exitX=1;exitY=0.5;exitDx=0;exitDy=0;entryX=0.25;entryY=1;entryDx=0;entryDy=0;" parent="1" source="gOMFBhx92F8j9sme_uIz-10" target="gOMFBhx92F8j9sme_uIz-15" edge="1">
          <mxGeometry relative="1" as="geometry" />
        </mxCell>
        <mxCell id="gOMFBhx92F8j9sme_uIz-10" value="Desc" style="ellipse;whiteSpace=wrap;html=1;" parent="1" vertex="1">
          <mxGeometry x="350" y="570" width="100" height="50" as="geometry" />
        </mxCell>
        <mxCell id="gOMFBhx92F8j9sme_uIz-11" style="edgeStyle=orthogonalEdgeStyle;rounded=0;orthogonalLoop=1;jettySize=auto;html=1;exitX=1;exitY=0.5;exitDx=0;exitDy=0;entryX=0.5;entryY=1;entryDx=0;entryDy=0;" parent="1" source="gOMFBhx92F8j9sme_uIz-12" target="gOMFBhx92F8j9sme_uIz-15" edge="1">
          <mxGeometry relative="1" as="geometry" />
        </mxCell>
        <mxCell id="gOMFBhx92F8j9sme_uIz-12" value="Status" style="ellipse;whiteSpace=wrap;html=1;" parent="1" vertex="1">
          <mxGeometry x="350" y="660" width="100" height="50" as="geometry" />
        </mxCell>
        <mxCell id="gOMFBhx92F8j9sme_uIz-13" style="edgeStyle=orthogonalEdgeStyle;rounded=0;orthogonalLoop=1;jettySize=auto;html=1;exitX=0;exitY=0.5;exitDx=0;exitDy=0;entryX=0.25;entryY=0;entryDx=0;entryDy=0;" parent="1" source="gOMFBhx92F8j9sme_uIz-14" target="gOMFBhx92F8j9sme_uIz-30" edge="1">
          <mxGeometry relative="1" as="geometry" />
        </mxCell>
        <mxCell id="gOMFBhx92F8j9sme_uIz-14" value="Tiket ID&lt;div&gt;FOREIGN KEY&lt;/div&gt;" style="ellipse;whiteSpace=wrap;html=1;" parent="1" vertex="1">
          <mxGeometry x="940" y="200" width="100" height="50" as="geometry" />
        </mxCell>
        <mxCell id="gOMFBhx92F8j9sme_uIz-15" value="TICKET" style="rounded=1;whiteSpace=wrap;html=1;" parent="1" vertex="1">
          <mxGeometry x="490" y="480" width="120" height="60" as="geometry" />
        </mxCell>
        <mxCell id="gOMFBhx92F8j9sme_uIz-16" style="edgeStyle=orthogonalEdgeStyle;rounded=0;orthogonalLoop=1;jettySize=auto;html=1;exitX=0;exitY=0.5;exitDx=0;exitDy=0;entryX=1;entryY=0.5;entryDx=0;entryDy=0;" parent="1" source="gOMFBhx92F8j9sme_uIz-17" target="gOMFBhx92F8j9sme_uIz-30" edge="1">
          <mxGeometry relative="1" as="geometry" />
        </mxCell>
        <mxCell id="gOMFBhx92F8j9sme_uIz-17" value="Kategori" style="ellipse;whiteSpace=wrap;html=1;" parent="1" vertex="1">
          <mxGeometry x="950" y="480" width="100" height="50" as="geometry" />
        </mxCell>
        <mxCell id="gOMFBhx92F8j9sme_uIz-18" style="edgeStyle=orthogonalEdgeStyle;rounded=0;orthogonalLoop=1;jettySize=auto;html=1;exitX=0;exitY=0.5;exitDx=0;exitDy=0;entryX=0.75;entryY=0;entryDx=0;entryDy=0;" parent="1" source="gOMFBhx92F8j9sme_uIz-19" target="gOMFBhx92F8j9sme_uIz-30" edge="1">
          <mxGeometry relative="1" as="geometry" />
        </mxCell>
        <mxCell id="gOMFBhx92F8j9sme_uIz-19" value="Email" style="ellipse;whiteSpace=wrap;html=1;" parent="1" vertex="1">
          <mxGeometry x="950" y="380" width="100" height="50" as="geometry" />
        </mxCell>
        <mxCell id="gOMFBhx92F8j9sme_uIz-20" style="edgeStyle=orthogonalEdgeStyle;rounded=0;orthogonalLoop=1;jettySize=auto;html=1;exitX=0;exitY=0.5;exitDx=0;exitDy=0;entryX=0.5;entryY=0;entryDx=0;entryDy=0;" parent="1" source="gOMFBhx92F8j9sme_uIz-21" target="gOMFBhx92F8j9sme_uIz-30" edge="1">
          <mxGeometry relative="1" as="geometry" />
        </mxCell>
        <mxCell id="gOMFBhx92F8j9sme_uIz-21" value="Nama" style="ellipse;whiteSpace=wrap;html=1;" parent="1" vertex="1">
          <mxGeometry x="950" y="290" width="100" height="50" as="geometry" />
        </mxCell>
        <mxCell id="gOMFBhx92F8j9sme_uIz-22" style="edgeStyle=orthogonalEdgeStyle;rounded=0;orthogonalLoop=1;jettySize=auto;html=1;exitX=0;exitY=0.5;exitDx=0;exitDy=0;entryX=0.25;entryY=1;entryDx=0;entryDy=0;" parent="1" source="gOMFBhx92F8j9sme_uIz-23" target="gOMFBhx92F8j9sme_uIz-30" edge="1">
          <mxGeometry relative="1" as="geometry" />
        </mxCell>
        <mxCell id="gOMFBhx92F8j9sme_uIz-23" value="Created" style="ellipse;whiteSpace=wrap;html=1;" parent="1" vertex="1">
          <mxGeometry x="960" y="740" width="100" height="50" as="geometry" />
        </mxCell>
        <mxCell id="gOMFBhx92F8j9sme_uIz-24" style="edgeStyle=orthogonalEdgeStyle;rounded=0;orthogonalLoop=1;jettySize=auto;html=1;exitX=0;exitY=0.5;exitDx=0;exitDy=0;entryX=0;entryY=1;entryDx=0;entryDy=0;" parent="1" source="gOMFBhx92F8j9sme_uIz-25" target="gOMFBhx92F8j9sme_uIz-30" edge="1">
          <mxGeometry relative="1" as="geometry" />
        </mxCell>
        <mxCell id="gOMFBhx92F8j9sme_uIz-25" value="Updated" style="ellipse;whiteSpace=wrap;html=1;" parent="1" vertex="1">
          <mxGeometry x="960" y="850" width="100" height="50" as="geometry" />
        </mxCell>
        <mxCell id="gOMFBhx92F8j9sme_uIz-26" style="edgeStyle=orthogonalEdgeStyle;rounded=0;orthogonalLoop=1;jettySize=auto;html=1;exitX=0;exitY=0.5;exitDx=0;exitDy=0;entryX=1;entryY=1;entryDx=0;entryDy=0;" parent="1" source="gOMFBhx92F8j9sme_uIz-27" target="gOMFBhx92F8j9sme_uIz-30" edge="1">
          <mxGeometry relative="1" as="geometry" />
        </mxCell>
        <mxCell id="gOMFBhx92F8j9sme_uIz-27" value="Desc" style="ellipse;whiteSpace=wrap;html=1;" parent="1" vertex="1">
          <mxGeometry x="960" y="560" width="100" height="50" as="geometry" />
        </mxCell>
        <mxCell id="gOMFBhx92F8j9sme_uIz-28" style="edgeStyle=orthogonalEdgeStyle;rounded=0;orthogonalLoop=1;jettySize=auto;html=1;exitX=0;exitY=0.5;exitDx=0;exitDy=0;entryX=0.5;entryY=1;entryDx=0;entryDy=0;" parent="1" source="gOMFBhx92F8j9sme_uIz-29" target="gOMFBhx92F8j9sme_uIz-30" edge="1">
          <mxGeometry relative="1" as="geometry" />
        </mxCell>
        <mxCell id="gOMFBhx92F8j9sme_uIz-29" value="Status" style="ellipse;whiteSpace=wrap;html=1;" parent="1" vertex="1">
          <mxGeometry x="960" y="640" width="100" height="50" as="geometry" />
        </mxCell>
        <mxCell id="gOMFBhx92F8j9sme_uIz-30" value="REPORT" style="rounded=1;whiteSpace=wrap;html=1;" parent="1" vertex="1">
          <mxGeometry x="780" y="480" width="120" height="60" as="geometry" />
        </mxCell>
        <mxCell id="gOMFBhx92F8j9sme_uIz-31" value="" style="endArrow=none;html=1;rounded=0;entryX=0;entryY=0.5;entryDx=0;entryDy=0;" parent="1" target="gOMFBhx92F8j9sme_uIz-30" edge="1">
          <mxGeometry relative="1" as="geometry">
            <mxPoint x="610" y="510" as="sourcePoint" />
            <mxPoint x="770" y="510" as="targetPoint" />
          </mxGeometry>
        </mxCell>
        <mxCell id="gOMFBhx92F8j9sme_uIz-32" value="1" style="edgeLabel;html=1;align=center;verticalAlign=middle;resizable=0;points=[];" parent="gOMFBhx92F8j9sme_uIz-31" vertex="1" connectable="0">
          <mxGeometry x="-0.6691" y="-1" relative="1" as="geometry">
            <mxPoint as="offset" />
          </mxGeometry>
        </mxCell>
        <mxCell id="gOMFBhx92F8j9sme_uIz-33" value="N" style="edgeLabel;html=1;align=center;verticalAlign=middle;resizable=0;points=[];" parent="gOMFBhx92F8j9sme_uIz-31" vertex="1" connectable="0">
          <mxGeometry x="0.752" y="-2" relative="1" as="geometry">
            <mxPoint as="offset" />
          </mxGeometry>
        </mxCell>
        <mxCell id="gOMFBhx92F8j9sme_uIz-34" value="Complaint" style="rounded=1;whiteSpace=wrap;html=1;" parent="1" vertex="1">
          <mxGeometry x="1600" y="460" width="120" height="60" as="geometry" />
        </mxCell>
        <mxCell id="gOMFBhx92F8j9sme_uIz-35" style="edgeStyle=orthogonalEdgeStyle;rounded=0;orthogonalLoop=1;jettySize=auto;html=1;exitX=1;exitY=0.5;exitDx=0;exitDy=0;entryX=0.75;entryY=0;entryDx=0;entryDy=0;" parent="1" source="gOMFBhx92F8j9sme_uIz-36" target="gOMFBhx92F8j9sme_uIz-34" edge="1">
          <mxGeometry relative="1" as="geometry" />
        </mxCell>
        <mxCell id="gOMFBhx92F8j9sme_uIz-36" value="Complaint ID&lt;div&gt;PRIMARY KEY&lt;/div&gt;" style="ellipse;whiteSpace=wrap;html=1;" parent="1" vertex="1">
          <mxGeometry x="1440" y="200" width="120" height="60" as="geometry" />
        </mxCell>
        <mxCell id="gOMFBhx92F8j9sme_uIz-37" style="edgeStyle=orthogonalEdgeStyle;rounded=0;orthogonalLoop=1;jettySize=auto;html=1;exitX=1;exitY=0.5;exitDx=0;exitDy=0;entryX=0.5;entryY=0;entryDx=0;entryDy=0;" parent="1" source="gOMFBhx92F8j9sme_uIz-38" target="gOMFBhx92F8j9sme_uIz-34" edge="1">
          <mxGeometry relative="1" as="geometry" />
        </mxCell>
        <mxCell id="gOMFBhx92F8j9sme_uIz-38" value="Name" style="ellipse;whiteSpace=wrap;html=1;" parent="1" vertex="1">
          <mxGeometry x="1450" y="300" width="100" height="50" as="geometry" />
        </mxCell>
        <mxCell id="gOMFBhx92F8j9sme_uIz-39" style="edgeStyle=orthogonalEdgeStyle;rounded=0;orthogonalLoop=1;jettySize=auto;html=1;exitX=1;exitY=0.5;exitDx=0;exitDy=0;entryX=0;entryY=0.5;entryDx=0;entryDy=0;" parent="1" source="gOMFBhx92F8j9sme_uIz-40" target="gOMFBhx92F8j9sme_uIz-34" edge="1">
          <mxGeometry relative="1" as="geometry" />
        </mxCell>
        <mxCell id="gOMFBhx92F8j9sme_uIz-40" value="Kategori" style="ellipse;whiteSpace=wrap;html=1;" parent="1" vertex="1">
          <mxGeometry x="1430" y="485" width="100" height="50" as="geometry" />
        </mxCell>
        <mxCell id="gOMFBhx92F8j9sme_uIz-41" style="edgeStyle=orthogonalEdgeStyle;rounded=0;orthogonalLoop=1;jettySize=auto;html=1;exitX=1;exitY=0.5;exitDx=0;exitDy=0;entryX=0.25;entryY=0;entryDx=0;entryDy=0;" parent="1" source="gOMFBhx92F8j9sme_uIz-42" target="gOMFBhx92F8j9sme_uIz-34" edge="1">
          <mxGeometry relative="1" as="geometry" />
        </mxCell>
        <mxCell id="gOMFBhx92F8j9sme_uIz-42" value="Email" style="ellipse;whiteSpace=wrap;html=1;" parent="1" vertex="1">
          <mxGeometry x="1440" y="400" width="100" height="50" as="geometry" />
        </mxCell>
        <mxCell id="gOMFBhx92F8j9sme_uIz-43" style="edgeStyle=orthogonalEdgeStyle;rounded=0;orthogonalLoop=1;jettySize=auto;html=1;exitX=1;exitY=0.5;exitDx=0;exitDy=0;entryX=0.25;entryY=1;entryDx=0;entryDy=0;" parent="1" source="gOMFBhx92F8j9sme_uIz-44" target="gOMFBhx92F8j9sme_uIz-34" edge="1">
          <mxGeometry relative="1" as="geometry" />
        </mxCell>
        <mxCell id="gOMFBhx92F8j9sme_uIz-44" value="Deskripsi" style="ellipse;whiteSpace=wrap;html=1;" parent="1" vertex="1">
          <mxGeometry x="1430" y="570" width="100" height="50" as="geometry" />
        </mxCell>
        <mxCell id="gOMFBhx92F8j9sme_uIz-45" style="edgeStyle=orthogonalEdgeStyle;rounded=0;orthogonalLoop=1;jettySize=auto;html=1;exitX=1;exitY=0.5;exitDx=0;exitDy=0;entryX=0.5;entryY=1;entryDx=0;entryDy=0;" parent="1" source="gOMFBhx92F8j9sme_uIz-46" target="gOMFBhx92F8j9sme_uIz-34" edge="1">
          <mxGeometry relative="1" as="geometry" />
        </mxCell>
        <mxCell id="gOMFBhx92F8j9sme_uIz-46" value="Status" style="ellipse;whiteSpace=wrap;html=1;" parent="1" vertex="1">
          <mxGeometry x="1440" y="660" width="100" height="50" as="geometry" />
        </mxCell>
        <mxCell id="kI6mmKx_sBDB3EedrHUM-3" style="edgeStyle=orthogonalEdgeStyle;rounded=0;orthogonalLoop=1;jettySize=auto;html=1;exitX=1;exitY=0.5;exitDx=0;exitDy=0;entryX=1;entryY=1;entryDx=0;entryDy=0;" edge="1" parent="1" source="gOMFBhx92F8j9sme_uIz-48" target="gOMFBhx92F8j9sme_uIz-34">
          <mxGeometry relative="1" as="geometry" />
        </mxCell>
        <mxCell id="gOMFBhx92F8j9sme_uIz-48" value="Updated" style="ellipse;whiteSpace=wrap;html=1;" parent="1" vertex="1">
          <mxGeometry x="1440" y="830" width="100" height="50" as="geometry" />
        </mxCell>
        <mxCell id="gOMFBhx92F8j9sme_uIz-49" value="" style="endArrow=classic;html=1;rounded=0;" parent="1" edge="1">
          <mxGeometry width="50" height="50" relative="1" as="geometry">
            <mxPoint x="660" y="524.39" as="sourcePoint" />
            <mxPoint x="720" y="524.39" as="targetPoint" />
          </mxGeometry>
        </mxCell>
        <mxCell id="gOMFBhx92F8j9sme_uIz-50" value="users&lt;div&gt;(Berdiri sendiri)&lt;/div&gt;" style="rounded=1;whiteSpace=wrap;html=1;" parent="1" vertex="1">
          <mxGeometry x="1900" y="470" width="120" height="60" as="geometry" />
        </mxCell>
        <mxCell id="gOMFBhx92F8j9sme_uIz-51" style="edgeStyle=orthogonalEdgeStyle;rounded=0;orthogonalLoop=1;jettySize=auto;html=1;exitX=0;exitY=0.5;exitDx=0;exitDy=0;" parent="1" source="gOMFBhx92F8j9sme_uIz-52" target="gOMFBhx92F8j9sme_uIz-50" edge="1">
          <mxGeometry relative="1" as="geometry" />
        </mxCell>
        <mxCell id="gOMFBhx92F8j9sme_uIz-52" value="ID&lt;div&gt;PRIMARY KEY&lt;/div&gt;" style="ellipse;whiteSpace=wrap;html=1;" parent="1" vertex="1">
          <mxGeometry x="2080" y="320" width="120" height="60" as="geometry" />
        </mxCell>
        <mxCell id="gOMFBhx92F8j9sme_uIz-53" style="edgeStyle=orthogonalEdgeStyle;rounded=0;orthogonalLoop=1;jettySize=auto;html=1;exitX=0;exitY=0.5;exitDx=0;exitDy=0;entryX=0.75;entryY=0;entryDx=0;entryDy=0;" parent="1" source="gOMFBhx92F8j9sme_uIz-54" target="gOMFBhx92F8j9sme_uIz-50" edge="1">
          <mxGeometry relative="1" as="geometry" />
        </mxCell>
        <mxCell id="gOMFBhx92F8j9sme_uIz-54" value="username" style="ellipse;whiteSpace=wrap;html=1;" parent="1" vertex="1">
          <mxGeometry x="2090" y="420" width="100" height="50" as="geometry" />
        </mxCell>
        <mxCell id="gOMFBhx92F8j9sme_uIz-55" style="edgeStyle=orthogonalEdgeStyle;rounded=0;orthogonalLoop=1;jettySize=auto;html=1;exitX=0;exitY=0.5;exitDx=0;exitDy=0;entryX=1;entryY=0.5;entryDx=0;entryDy=0;" parent="1" source="gOMFBhx92F8j9sme_uIz-56" target="gOMFBhx92F8j9sme_uIz-50" edge="1">
          <mxGeometry relative="1" as="geometry" />
        </mxCell>
        <mxCell id="gOMFBhx92F8j9sme_uIz-56" value="password" style="ellipse;whiteSpace=wrap;html=1;" parent="1" vertex="1">
          <mxGeometry x="2090" y="500" width="100" height="50" as="geometry" />
        </mxCell>
        <mxCell id="gOMFBhx92F8j9sme_uIz-57" style="edgeStyle=orthogonalEdgeStyle;rounded=0;orthogonalLoop=1;jettySize=auto;html=1;exitX=0;exitY=0.5;exitDx=0;exitDy=0;entryX=0.5;entryY=1;entryDx=0;entryDy=0;" parent="1" source="gOMFBhx92F8j9sme_uIz-58" target="gOMFBhx92F8j9sme_uIz-50" edge="1">
          <mxGeometry relative="1" as="geometry" />
        </mxCell>
        <mxCell id="gOMFBhx92F8j9sme_uIz-58" value="role" style="ellipse;whiteSpace=wrap;html=1;" parent="1" vertex="1">
          <mxGeometry x="2090" y="590" width="100" height="50" as="geometry" />
        </mxCell>
        <mxCell id="gOMFBhx92F8j9sme_uIz-59" value="faqs&lt;div&gt;(Berdiri sendiri)&lt;/div&gt;" style="rounded=1;whiteSpace=wrap;html=1;" parent="1" vertex="1">
          <mxGeometry x="2700" y="475" width="120" height="60" as="geometry" />
        </mxCell>
        <mxCell id="gOMFBhx92F8j9sme_uIz-60" style="edgeStyle=orthogonalEdgeStyle;rounded=0;orthogonalLoop=1;jettySize=auto;html=1;exitX=1;exitY=0.5;exitDx=0;exitDy=0;" parent="1" source="gOMFBhx92F8j9sme_uIz-61" target="gOMFBhx92F8j9sme_uIz-59" edge="1">
          <mxGeometry relative="1" as="geometry" />
        </mxCell>
        <mxCell id="gOMFBhx92F8j9sme_uIz-61" value="ID&lt;div&gt;PRIMARY KEY&lt;/div&gt;" style="ellipse;whiteSpace=wrap;html=1;" parent="1" vertex="1">
          <mxGeometry x="2470" y="400" width="120" height="60" as="geometry" />
        </mxCell>
        <mxCell id="gOMFBhx92F8j9sme_uIz-62" style="edgeStyle=orthogonalEdgeStyle;rounded=0;orthogonalLoop=1;jettySize=auto;html=1;exitX=1;exitY=0.5;exitDx=0;exitDy=0;entryX=0;entryY=0.5;entryDx=0;entryDy=0;" parent="1" source="gOMFBhx92F8j9sme_uIz-63" target="gOMFBhx92F8j9sme_uIz-59" edge="1">
          <mxGeometry relative="1" as="geometry" />
        </mxCell>
        <mxCell id="gOMFBhx92F8j9sme_uIz-63" value="question" style="ellipse;whiteSpace=wrap;html=1;" parent="1" vertex="1">
          <mxGeometry x="2480" y="500" width="100" height="50" as="geometry" />
        </mxCell>
        <mxCell id="gOMFBhx92F8j9sme_uIz-64" style="edgeStyle=orthogonalEdgeStyle;rounded=0;orthogonalLoop=1;jettySize=auto;html=1;exitX=1;exitY=0.5;exitDx=0;exitDy=0;entryX=0.5;entryY=1;entryDx=0;entryDy=0;" parent="1" source="gOMFBhx92F8j9sme_uIz-65" target="gOMFBhx92F8j9sme_uIz-59" edge="1">
          <mxGeometry relative="1" as="geometry" />
        </mxCell>
        <mxCell id="gOMFBhx92F8j9sme_uIz-65" value="answer" style="ellipse;whiteSpace=wrap;html=1;" parent="1" vertex="1">
          <mxGeometry x="2480" y="580" width="100" height="50" as="geometry" />
        </mxCell>
        <mxCell id="kI6mmKx_sBDB3EedrHUM-4" style="edgeStyle=orthogonalEdgeStyle;rounded=0;orthogonalLoop=1;jettySize=auto;html=1;exitX=1;exitY=0.5;exitDx=0;exitDy=0;entryX=0.75;entryY=1;entryDx=0;entryDy=0;" edge="1" parent="1" source="kI6mmKx_sBDB3EedrHUM-1" target="gOMFBhx92F8j9sme_uIz-34">
          <mxGeometry relative="1" as="geometry" />
        </mxCell>
        <mxCell id="kI6mmKx_sBDB3EedrHUM-1" value="Created" style="ellipse;whiteSpace=wrap;html=1;" vertex="1" parent="1">
          <mxGeometry x="1430" y="740" width="100" height="50" as="geometry" />
        </mxCell>
      </root>
    </mxGraphModel>
  </diagram>
</mxfile>
